<?xml version="1.0" standalone="no"?>
<!DOCTYPE svg PUBLIC "-//W3C//DTD SVG 20010904//EN"
 "http://www.w3.org/TR/2001/REC-SVG-20010904/DTD/svg10.dtd">
<svg version="1.0" xmlns="http://www.w3.org/2000/svg"
 width="855.000000pt" height="855.000000pt" viewBox="0 0 855.000000 855.000000"
 preserveAspectRatio="xMidYMid meet">
<metadata>
Created by potrace 1.11, written by Peter Selinger 2001-2013
</metadata>
<g transform="translate(0.000000,855.000000) scale(0.100000,-0.100000)"
fill="#000000" stroke="none">
<path d="M1177 8534 c-416 -65 -776 -308 -989 -669 -32 -55 -44 -79 -91 -185
-17 -38 -63 -196 -72 -245 -3 -16 -8 -52 -13 -80 -4 -27 -7 -1420 -7 -3095 0
-2902 1 -3049 18 -3135 57 -282 198 -543 396 -734 179 -172 417 -304 638 -352
32 -7 65 -14 73 -16 8 -2 35 -6 60 -10 25 -5 1418 -8 3095 -8 2949 0 3053 1
3140 19 299 63 541 194 743 405 56 58 156 189 188 247 108 192 151 316 184
534 11 68 7 6107 -3 6170 -47 277 -185 553 -373 745 -149 152 -341 278 -519
340 -27 9 -57 20 -65 23 -24 8 -30 10 -130 34 l-95 22 -3045 2 c-2546 2 -3059
0 -3133 -12z"/>
</g>
</svg>
