<svg height="40" viewBox="0 0 292 156" version="1.1" xmlns="http://www.w3.org/2000/svg" xmlns:xlink="http://www.w3.org/1999/xlink">
    <title>logo</title>
    <defs>
        <path d="M8.064,148.429 C9.152,148.429 10.168,148.213 11.112,147.781 C12.056,147.349 12.88,146.765 13.584,146.029 C14.288,145.293 14.84,144.453 15.24,143.509 C15.64,142.565 15.84,141.565 15.84,140.509 L15.84,140.509 L15.84,138.397 L10.944,138.397 L10.944,140.077 C10.944,140.749 10.848,141.309 10.656,141.757 C10.464,142.205 10.224,142.557 9.936,142.813 C9.616,143.069 9.272,143.253 8.904,143.365 C8.536,143.477 8.192,143.533 7.872,143.533 C6.752,143.533 5.976,143.197 5.544,142.525 C5.112,141.853 4.896,141.021 4.896,140.029 L4.896,140.029 L4.896,122.557 C4.896,121.405 5.096,120.453 5.496,119.701 C5.896,118.949 6.704,118.573 7.92,118.573 C8.848,118.573 9.584,118.925 10.128,119.629 C10.672,120.333 10.944,121.165 10.944,122.125 L10.944,122.125 L10.944,123.757 L15.84,123.757 L15.84,121.837 C15.84,120.653 15.64,119.557 15.24,118.549 C14.84,117.541 14.288,116.669 13.584,115.933 C12.144,114.429 10.272,113.677 7.968,113.677 C6.784,113.677 5.704,113.877 4.728,114.277 C3.752,114.677 2.912,115.229 2.208,115.933 C1.504,116.637 0.96,117.469 0.576,118.429 C0.192,119.389 0,120.429 0,121.549 L0,121.549 L0,140.365 C0,141.933 0.248,143.221 0.744,144.229 C1.24,145.237 1.872,146.061 2.64,146.701 C3.408,147.341 4.272,147.789 5.232,148.045 C6.192,148.301 7.136,148.429 8.064,148.429 Z M34.416,148.141 L34.416,143.245 L24.72,143.245 L24.72,113.965 L19.824,113.965 L19.824,148.141 L34.416,148.141 Z M45.504,148.429 C46.496,148.429 47.48,148.253 48.456,147.901 C49.432,147.549 50.32,147.021 51.12,146.317 C51.888,145.645 52.512,144.797 52.992,143.773 C53.472,142.749 53.712,141.517 53.712,140.077 L53.712,140.077 L53.712,122.029 C53.712,120.653 53.472,119.437 52.992,118.381 C52.512,117.325 51.888,116.445 51.12,115.741 C50.32,115.069 49.432,114.557 48.456,114.205 C47.48,113.853 46.496,113.677 45.504,113.677 C44.512,113.677 43.528,113.853 42.552,114.205 C41.576,114.557 40.704,115.069 39.936,115.741 C39.136,116.445 38.496,117.325 38.016,118.381 C37.536,119.437 37.296,120.653 37.296,122.029 L37.296,122.029 L37.296,140.077 C37.296,141.517 37.536,142.749 38.016,143.773 C38.496,144.797 39.136,145.645 39.936,146.317 C40.704,147.021 41.576,147.549 42.552,147.901 C43.528,148.253 44.512,148.429 45.504,148.429 Z M45.504,143.533 C44.608,143.533 43.832,143.253 43.176,142.693 C42.52,142.133 42.192,141.261 42.192,140.077 L42.192,140.077 L42.192,122.029 C42.192,120.845 42.52,119.973 43.176,119.413 C43.832,118.853 44.608,118.573 45.504,118.573 C46.4,118.573 47.176,118.853 47.832,119.413 C48.488,119.973 48.816,120.845 48.816,122.029 L48.816,122.029 L48.816,140.077 C48.816,141.261 48.488,142.133 47.832,142.693 C47.176,143.253 46.4,143.533 45.504,143.533 Z M65.952,148.429 C67.04,148.429 68.064,148.221 69.024,147.805 C69.984,147.389 70.832,146.813 71.568,146.077 C72.304,145.341 72.872,144.501 73.272,143.557 C73.672,142.613 73.872,141.581 73.872,140.461 L73.872,140.461 L73.872,113.965 L68.976,113.965 L68.976,139.981 C68.976,141.197 68.688,142.093 68.112,142.669 C67.536,143.245 66.816,143.533 65.952,143.533 C65.088,143.533 64.368,143.245 63.792,142.669 C63.216,142.093 62.928,141.197 62.928,139.981 L62.928,139.981 L62.928,113.965 L58.032,113.965 L58.032,140.461 C58.032,141.581 58.24,142.613 58.656,143.557 C59.072,144.501 59.648,145.341 60.384,146.077 C61.12,146.813 61.96,147.389 62.904,147.805 C63.848,148.221 64.864,148.429 65.952,148.429 Z M85.296,148.141 C88.208,148.141 90.44,147.381 91.992,145.861 C93.544,144.341 94.32,141.981 94.32,138.781 L94.32,138.781 L94.32,122.797 C94.32,119.981 93.592,117.805 92.136,116.269 C90.68,114.733 88.544,113.965 85.728,113.965 L85.728,113.965 L78.48,113.965 L78.48,148.141 L85.296,148.141 Z M85.632,143.533 L83.376,143.533 L83.376,118.573 L85.632,118.573 C87.072,118.573 88.064,118.941 88.608,119.677 C89.152,120.413 89.424,121.453 89.424,122.797 L89.424,122.797 L89.424,139.261 C89.424,140.733 89.136,141.813 88.56,142.501 C87.984,143.189 87.008,143.533 85.632,143.533 L85.632,143.533 Z" id="path-1"></path>
    </defs>
    <g id="Page-1" stroke="none" stroke-width="1" fill="none" fill-rule="evenodd">
        <g id="Artboard" transform="translate(-21.000000, 0.000000)" fill-rule="nonzero">
            <g id="logo" transform="translate(21.258350, 0.859000)">
                <path d="M58.32865,73.372 L60.69765,68.56 L61.41865,67.11 L61.99665,68.624 L63.89865,73.628 C64.36765,74.858 64.87965,76.246 65.41865,77.727 C66.43165,71.467 69.11965,64.903 73.63965,58.378 C77.31565,53.072 81.80365,48.259 86.82265,43.977 C87.68765,39.888 88.52165,35.876 89.33265,31.835 C87.35965,33.017 85.42865,34.253 83.54865,35.55 L68.67565,29.018 C63.16865,33.159 58.05965,37.695 53.47765,42.577 L65.54965,51.577 C63.78765,53.63 62.14065,55.755 60.62665,57.942 C57.91865,61.852 55.75865,65.776 54.12765,69.657 L33.53565,75.333 C31.91765,80.611 31.07665,85.795 30.98265,90.799 L48.65065,91.074 C52.37765,84.908 56.02365,78.044 58.32865,73.372 Z M121.19965,145.574 C120.43765,148.992 119.85765,152.105 119.38665,154.66 L119.29565,155.141 C148.10165,153.451 176.98365,143.205 199.55865,125.506 C196.33665,124.188 192.06765,122.188 187.63965,119.387 C168.99165,133.93 145.13565,142.99 121.19965,145.574 Z M207.32765,10.606 C201.79265,7.483 195.53265,4.877 188.57465,2.864 C184.38965,1.655 178.90165,0.706 174.50465,0 L164.15565,10.005 L156.55565,17.224 C148.91165,15.976 140.85965,15.899 132.74265,16.857 L129.33965,3.083 C122.40465,4.233 115.47165,5.958 108.67265,8.214 L107.98965,17.581 C108.63365,21.852 109.23665,25.948 109.81165,29.925 C124.48665,23.863 140.76465,21.815 155.85765,25.232 C161.11365,26.421 167.33265,28.714 172.63365,31.729 C190.19665,43.058 195.29365,53.868 194.67065,68.003 L203.40065,69.25 C205.86665,46.979 194.25165,33.856 176.64265,24.718 L183.67765,14.548 C187.51265,15.956 191.08965,17.573 194.35365,19.413 C224.29765,36.282 229.94965,70.234 205.37665,101.797 C208.98965,104.072 212.32965,106.285 215.23965,108.217 L216.68965,109.18 C217.75965,107.93 218.80265,106.658 219.81765,105.363 C248.21065,69.082 241.76365,30.003 207.32765,10.606 L207.32765,10.606 Z" id="zahnrad" fill="#DBDBDB"></path>
                <path d="M128.26465,83.893 C138.13665,83.893 143.56765,78.251 143.56765,72.427 C143.56765,68.06 141.05065,65.511 137.34265,63.509 C134.95465,62.234 131.24665,60.778 128.53265,59.199 C125.61665,57.501 123.96465,56.044 123.96465,52.587 C123.96465,49.979 126.14565,46.763 130.65265,46.763 C132.50365,46.763 134.62465,47.065 136.21465,48.098 C137.73665,49.128 138.26665,51.069 138.66465,54.286 C138.99565,54.651 141.05065,54.651 141.24965,54.225 C141.51265,51.253 141.91365,47.309 142.37465,45.306 C139.46265,45.001 136.61065,44.153 131.57865,44.153 C124.09565,44.153 118.13465,47.915 118.13465,54.651 C118.13465,60.354 122.10665,63.204 128.46665,66.419 C134.62465,69.574 137.14165,71.214 137.14165,74.976 C137.14165,79.587 133.10265,81.044 130.25365,81.044 C127.87065,81.044 125.48565,80.497 123.82965,79.282 C121.44465,77.706 120.05565,75.097 118.79665,71.458 C118.39865,71.214 116.14865,71.698 116.01465,72.244 C116.21265,74.49 117.60465,81.224 118.19965,81.952 C119.92165,82.559 124.02665,83.893 128.26465,83.893 Z M96.28065,68.174 C97.63065,61.835 98.97165,54.938 100.27365,45.315 C101.51265,54.075 102.61665,61.401 103.64165,68.081 L96.28065,68.174 Z M6.66165,102.634 C4.36865,102.634 2.50365,100.769 2.50365,98.476 C2.50365,96.185 4.36865,94.317 6.66165,94.317 C8.95465,94.317 10.81965,96.185 10.81965,98.476 C10.81965,100.769 8.95465,102.634 6.66165,102.634 Z M119.22465,118.491 C113.63665,77.318 110.85665,52.604 104.94765,13.72 C103.13065,11.017 100.53265,8.106 97.57965,5.622 C92.78665,36.266 86.31565,60.112 80.99365,90.425 C78.98565,89.802 77.16965,88.763 74.08365,87.099 C73.00965,88.999 71.87265,94.265 69.93665,98.532 C68.26265,93.015 64.44865,81.694 61.59365,74.213 C58.21865,81.069 52.76665,91.048 48.15165,97.892 L13.25665,97.892 C12.95565,94.495 10.13665,91.823 6.66165,91.823 C2.98665,91.823 0.00965,94.802 0.00965,98.476 C0.00965,102.149 2.98665,105.128 6.66165,105.128 C9.95065,105.128 12.66365,102.737 13.20165,99.602 L50.91565,99.602 C53.54565,95.829 57.70065,90.011 60.24265,86.04 C62.25965,92.374 67.04665,105.292 68.34365,109.341 C70.47365,106.671 74.26265,99.427 76.84665,97.038 C81.32165,99.151 86.25565,101.235 89.88765,102.897 C91.68465,89.069 93.55465,80.714 95.41965,72.167 L104.39165,72.934 C106.89065,89.097 108.95765,102.222 111.40265,124.376 C112.43065,133.704 114.16565,142.224 116.88965,151.749 C119.92965,135.392 126.99965,98.354 159.54065,98.354 C185.61865,98.354 221.38465,129.468 270.67665,130.726 C221.51465,128.997 193.77265,86.102 159.00765,86.102 C122.72965,86.102 119.22465,118.491 119.22465,118.491 Z M176.61665,52.466 C176.74765,52.345 176.94865,52.405 177.01165,52.405 C178.13765,54.831 180.78665,61.567 182.04665,64.722 C182.11265,65.024 181.91365,65.329 181.71465,65.329 C180.85465,65.39 178.99965,65.39 177.34365,65.39 C175.42365,65.39 172.84165,65.39 172.11265,65.329 C171.91365,65.267 171.84665,65.085 171.84665,64.904 C173.10465,61.263 175.49165,55.682 176.61665,52.466 Z M140.78665,61.506 L144.62665,61.749 C144.95665,61.808 145.08965,62.173 145.08965,62.356 C145.08965,64.782 145.02465,69.818 145.02465,73.399 C145.02465,77.282 145.15765,78.858 146.08365,80.436 C147.20865,82.378 149.46265,83.591 152.44065,83.591 C153.70065,83.591 159.06365,82.802 163.36865,82.802 C167.80765,82.802 171.25365,82.985 172.57565,82.985 C172.90565,82.681 173.04065,80.86 172.77265,80.556 C171.58165,80.436 170.12465,80.254 169.26465,80.071 C167.34365,79.647 167.07765,79.224 167.07765,78.069 C167.07765,76.855 168.80065,72.911 170.19065,69.455 C170.19065,69.333 170.65365,68.907 170.98365,68.907 C171.71465,68.849 172.11265,68.849 176.35065,68.849 C178.79865,68.849 181.84865,68.849 183.03865,68.907 C183.17165,68.907 183.56765,69.028 183.70065,69.333 C184.76265,71.698 186.48165,75.825 187.34565,78.374 C187.47565,78.797 187.34565,79.587 186.55065,79.889 C185.55565,80.193 184.16565,80.376 182.70865,80.556 C182.37865,80.86 182.44465,82.681 182.70865,82.985 C184.03265,82.985 188.33965,82.802 192.31165,82.802 C196.08565,82.802 199.26665,82.924 200.98565,82.985 C201.25165,82.681 201.51865,80.8 201.12065,80.556 C196.08565,79.949 195.55565,79.587 193.43665,75.279 C190.85465,69.879 183.50365,52.161 182.17965,48.765 C181.71465,47.55 181.31765,46.397 180.98565,45.185 C180.65565,45.245 179.92765,45.245 178.33765,45.245 C177.07965,45.245 176.21665,45.245 175.88665,45.185 C175.68865,46.156 175.09165,47.732 174.55965,49.128 C173.10465,53.072 166.68265,68.3 163.76665,74.673 C163.51265,75.209 163.28265,75.669 163.05565,76.102 C162.10465,78.19 157.20265,79.343 155.35465,79.343 C153.56565,79.343 151.64765,78.614 151.11465,76.795 C150.78465,75.825 150.65365,74.612 150.65365,71.759 C150.65365,68.544 150.65365,64.356 150.72065,62.052 C150.72065,61.991 150.91965,61.749 150.98365,61.749 C153.76665,61.749 157.93865,61.808 159.19865,61.808 C159.26165,60.716 159.66165,58.897 159.92565,57.866 C158.66765,57.985 154.16365,58.169 151.11465,58.169 C150.91965,58.169 150.78465,57.925 150.78465,57.745 C150.78465,53.558 151.05265,50.585 151.11465,49.491 C150.91965,49.433 149.99165,49.433 149.65965,49.613 C148.66565,50.402 146.08365,51.737 145.08965,52.222 L145.08965,57.745 C145.08965,58.047 144.82565,58.29 144.75765,58.29 C144.16365,58.474 142.50765,58.897 141.44665,59.018 C141.05065,59.382 140.71865,61.02 140.78665,61.506 Z M178.54065,109.235 C171.50165,109.235 166.42365,111.308 161.51265,113.306 C157.06765,115.118 152.86865,116.831 147.58165,116.831 C140.94465,116.831 137.54665,115.817 134.52665,114.483 C134.53865,114.55 141.42365,121.413 150.75365,121.413 C154.81965,121.413 159.28665,119.679 164.01265,117.845 C169.39565,115.751 175.50565,113.376 181.72065,113.376 C187.40365,113.376 193.34365,116.187 199.09165,118.907 C204.94465,121.681 211.00165,124.542 217.05065,124.542 L222.22965,124.542 C212.42765,124.542 206.14165,120.329 199.89965,116.948 C192.91965,113.155 185.69865,109.235 178.54065,109.235 L178.54065,109.235 Z" id="asta" fill="#FFFFFF"></path>
                <polygon id="I" fill="#DBDBDB" points="101.74165 153.386 103.74065 153.386 103.74065 108.141 101.74165 108.141"></polygon>
                <g id="CLOUD">
                    <use fill="#000000" xlink:href="#path-1"></use>
                    <use fill="#DBDBDB" xlink:href="#path-1"></use>
                </g>
            </g>
        </g>
    </g>
</svg>
